# xmcd CD database file
#
# Track frame offsets:
#	150
#	14655
#	33345
#	64675
#	83562
#	103460
#	128532
#	164757
#	180312
#	192700
#
# Disc length: 2879 seconds
#
# Revision: 0
# Processed by: cddbd v1.4PL0 Copyright (c) Steve Scherf et al.
# Submitted via: CDex 1.51
#
DISCID=860b3d0a
DTITLE=Shahbrack - The official greatest Hits Bootleg
DYEAR=1993
DGENRE=Blues
TTITLE0=Jam Song
TTITLE1=F
TTITLE2=Have you ever loved a woman
TTITLE3=Bad misery
TTITLE4=Crossroads
TTITLE5=She's gone
TTITLE6=Shut up and go
TTITLE7=Crosscut saw
TTITLE8=Change my life
TTITLE9=On the edge
EXTD=YEAR: 1993
EXTT0=
EXTT1=
EXTT2=
EXTT3=
EXTT4=
EXTT5=
EXTT6=
EXTT7=
EXTT8=
EXTT9=
PLAYORDER=
